<svg xmlns="http://www.w3.org/2000/svg" width="120" height="32" viewBox="0 0 120 32" fill="none">
  <path d="M60 4C50 4 42 8 36 12C30 8 22 4 12 4C8 4 4 6 2 8" stroke="#D4A843" stroke-width="1.2" fill="none" stroke-linecap="round"/>
  <path d="M60 4C70 4 78 8 84 12C90 8 98 4 108 4C112 4 116 6 118 8" stroke="#D4A843" stroke-width="1.2" fill="none" stroke-linecap="round"/>
  <circle cx="60" cy="16" r="3" fill="#D4A843"/>
  <path d="M48 16C52 12 56 14 60 16C64 14 68 12 72 16" stroke="#D4A843" stroke-width="1" fill="none"/>
  <path d="M48 16C52 20 56 18 60 16C64 18 68 20 72 16" stroke="#D4A843" stroke-width="1" fill="none"/>
  <circle cx="60" cy="16" r="1.5" fill="#B8860B"/>
  <path d="M36 20C42 18 48 16 54 18" stroke="#D4A843" stroke-width="0.8" fill="none" opacity="0.6"/>
  <path d="M66 18C72 16 78 18 84 20" stroke="#D4A843" stroke-width="0.8" fill="none" opacity="0.6"/>
</svg>
